<svg width="45" height="45" viewBox="0 0 45 45" fill="none" xmlns="http://www.w3.org/2000/svg">
<g clip-path="url(#clip0_1_488)">
<path d="M45 22.5C45 10.0733 34.9267 0 22.5 0C10.0733 0 0 10.0733 0 22.5C0 33.0525 7.26454 41.9057 17.0646 44.3378V29.3755H12.4249V22.5H17.0646V19.5374C17.0646 11.8786 20.5303 8.32898 28.0485 8.32898C29.4746 8.32898 31.9341 8.60923 32.9402 8.88861V15.1214C32.4088 15.0657 31.4867 15.0374 30.341 15.0374C26.6517 15.0374 25.2256 16.4352 25.2256 20.0688V22.5H32.575L31.3126 29.3755H25.2256V44.8356C36.3669 43.49 45 34.0037 45 22.5Z" fill="#5e52df"/>
<path d="M31.3127 29.3754L32.5751 22.4999H25.2257V20.0686C25.2257 16.435 26.6518 15.0373 30.3411 15.0373C31.4868 15.0373 32.4089 15.0656 32.9403 15.1213V8.88848C31.9342 8.60911 29.4747 8.32886 28.0486 8.32886C20.5304 8.32886 17.0647 11.8793 17.0647 19.5373V22.4999H12.425V29.3754H17.0647V44.3377C18.8055 44.7691 20.6258 44.9999 22.5001 44.9999C23.4231 44.9999 24.3319 44.9433 25.2257 44.8354V29.3754H31.3127Z" fill="#fdfdfd"/>
</g>
<defs>
<clipPath id="clip0_1_488">
<rect width="45" height="45" fill="white"/>
</clipPath>
</defs>
</svg>
