<svg width="45" height="45" viewBox="0 0 45 45" fill="none" xmlns="http://www.w3.org/2000/svg">
<g clip-path="url(#clip0_1_485)">
<path d="M12.3926 18.4938C13.905 21.2357 15.6482 23.8672 17.9114 26.2668C20.1819 28.6811 23.0054 30.8783 26.6601 32.7553C26.9311 32.8878 27.1875 32.8878 27.4182 32.7958C27.7661 32.6633 28.1213 32.3725 28.4692 32.0229C28.7402 31.7506 29.0771 31.3163 29.4287 30.8415C30.8349 28.9829 32.5744 26.6753 35.0317 27.831C35.0867 27.8567 35.1269 27.8862 35.1819 27.9082L43.3777 32.6449C43.4033 32.6596 43.4326 32.6854 43.4546 32.7001C44.5349 33.4472 44.9817 34.5992 44.9927 35.9057C44.9927 37.2343 44.5056 38.7286 43.7915 39.9909C42.8467 41.6581 41.4551 42.7623 39.8511 43.491C38.324 44.1976 36.6247 44.5767 34.9914 44.8196C32.428 45.1987 30.0256 44.9558 27.5683 44.1976C25.166 43.4505 22.7453 42.2176 20.1013 40.5761L19.9072 40.451C18.6951 39.6891 17.384 38.8758 16.0986 37.9152C11.3965 34.3452 6.60277 29.189 3.47899 23.5139C0.860581 18.7515 -0.567642 13.61 0.212388 8.71138C0.644517 6.02471 1.79076 3.58093 3.79027 1.96893C5.53343 0.555662 7.88084 -0.217218 10.9204 0.0551304C11.2683 0.0808931 11.5796 0.283314 11.7444 0.585105L16.9995 9.51371C17.7685 10.5148 17.8638 11.5085 17.4426 12.5022C17.0947 13.3155 16.3916 14.0663 15.4321 14.7656C15.1501 15.0085 14.8132 15.2551 14.458 15.5127C13.2825 16.3703 11.9458 17.3603 12.4035 18.5233L12.3926 18.4938Z" fill="#FFB800"/>
</g>
<defs>
<clipPath id="clip0_1_485">
<rect width="45" height="45" fill="white"/>
</clipPath>
</defs>
</svg>
