<svg width="45" height="45" viewBox="0 0 45 45" fill="none" xmlns="http://www.w3.org/2000/svg">
<g clip-path="url(#clip0_1_496)">
<path d="M34.839 0H10.161C4.54925 0 0 4.57032 0 10.2081V34.7919C0 40.4297 4.54925 45 10.161 45H34.839C40.4508 45 45 40.4297 45 34.7919V10.2081C45 4.57032 40.4508 0 34.839 0Z" fill="#000000"/>
<path d="M28.4537 13.0989H31.6283L24.6928 21.0633L32.8517 31.9001H26.4629L21.4593 25.3281L15.7333 31.9001H12.5569L19.9749 23.382L12.1482 13.0989H18.6987L23.2215 19.1066L28.4537 13.0989ZM27.3392 29.9911H29.0988L17.7433 14.9081H15.8554L27.3392 29.9911Z" fill="#cdcdcd"/>
</g>
<defs>
<clipPath id="clip0_1_496">
<rect width="45" height="45" fill="white"/>
</clipPath>
</defs>
</svg>
