<svg width="45" height="38" viewBox="0 0 45 38" fill="none" xmlns="http://www.w3.org/2000/svg">
<path fill-rule="evenodd" clip-rule="evenodd" d="M28.8611 26.7601C27.2681 28.3021 25.4114 29.6856 23.324 30.8041C23.0676 30.969 22.7197 30.9916 22.4341 30.83C19.3542 29.1005 16.7651 27.0219 14.7327 24.7656C11.9275 21.659 10.1587 18.213 9.55444 14.8963C8.93921 11.5311 9.51416 8.29524 11.4111 5.66387C12.1582 4.62296 13.114 3.67579 14.2786 2.85794C16.9556 0.973305 20.0134 -0.0191169 23.0566 0.00027896C25.99 0.0196748 28.8831 0.986235 31.3843 3.00017C32.2632 3.70489 33.0029 4.51305 33.6072 5.3891C35.647 8.35343 36.0864 12.1356 35.1892 15.9695C34.3066 19.755 32.1094 23.605 28.8611 26.7504V26.7601ZM9.27246 24.0964C9.99756 24.0964 10.5872 24.6169 10.5872 25.2569C10.5872 25.897 9.99756 26.4174 9.27246 26.4174H6.8042L3.55225 35.6854H41.3525L37.8223 26.4174H35.7825C35.0574 26.4174 34.4678 25.897 34.4678 25.2569C34.4678 24.6169 35.0574 24.0964 35.7825 24.0964H39.7009L44.9963 38H0L4.87793 24.0964H9.27246ZM22.478 5.9839C26.0962 5.9839 29.0259 8.57325 29.0259 11.7606C29.0259 14.9545 26.0925 17.5406 22.478 17.5406C18.8599 17.5406 15.9338 14.9545 15.9338 11.7606C15.9265 8.57002 18.8599 5.9839 22.478 5.9839Z" fill="#df90ff"/>
</svg>
